<svg xmlns="http://www.w3.org/2000/svg" viewBox="0 0 121.67 42.76" xmlns:v="https://vecta.io/nano"><path d="M62.17 6.75v6.14h1.9V6.75h-1.9zM109.5 9c-.6-.1-1.18-.24-1.18-.47s0-.4.8-.4.86.34.9.64v.14h1.86v-.17c-.1-1.38-1-2.08-2.83-2.08s-2.6 1.07-2.6 2.1c0 1.4 1.45 1.7 2.52 1.92.62.1 1.2.23 1.2.5s-.24.44-.87.44c-1 0-1.13-.4-1.13-.7v-.17h-1.93v.17c0 1.38 1.13 2.18 3 2.18 1.35 0 2.8-.57 2.8-2.18 0-1.4-1.5-1.7-2.58-1.9m-7.56-.74c.66 0 .83.47.9.8v.14h1.9v-.17a2.54 2.54 0 0 0-2.8-2.38c-1.93 0-3 1.2-3 3.4a2.8 2.8 0 0 0 2.93 3.05 2.71 2.71 0 0 0 2.9-2.41v-.17h-1.9v.13a.9.9 0 0 1-.9.87c-.93 0-1-.87-1-1.74 0-.34.07-1.5 1.07-1.5m-7.52 0a1 1 0 0 0-1 .91h2a1 1 0 0 0-1-.91m0-1.57c.9 0 3 .33 3 3.35v.44H93.3a1.13 1.13 0 0 0 1.24 1.11.85.85 0 0 0 .86-.54v-.1h1.93v.2a2.76 2.76 0 0 1-2.8 2c-2.07 0-3.14-1.17-3.14-3.35a2.89 2.89 0 0 1 3-3.09M83.17 9.84c0-.74-.2-1.6-1.28-1.6s-1.27.87-1.27 1.6.2 1.6 1.27 1.6 1.28-.87 1.28-1.6M81.9 6.62a3 3 0 0 1 3.21 3.22 3.21 3.21 0 1 1-6.41 0 3 3 0 0 1 3.2-3.22m-12 0a2 2 0 0 0-1.66.7v-.57h-1.86v6.14h1.9V9.4a1 1 0 0 1 1.07-1.17c.8 0 .86.47.86 1v3.7h1.9v-4.2a2 2 0 0 0-2.24-2.11M89.1 5.2h-1.9v1.54h-.8v1.4h.8v3.4c0 .74.2 1.4 1.76 1.4h1.1v-1.5h-.48c-.5 0-.5 0-.5-.3v-3h1v-1.4h-1zM76.5 6.68v.07h1v1.4h-1v4.73h-1.9V8.16h-.87v-1.4h.87v-.3c0-1.2.65-1.82 1.93-1.82h1V6.2h-.62c-.38 0-.38 0-.38.47" fill="#265a90"/><path d="M66.94 3.3a1.55 1.55 0 0 1-.5 0 .85.85 0 0 1-.66-.62 1 1 0 0 1 .28-1 2 2 0 0 1 .42-.22A32.68 32.68 0 0 1 75 .07a41.27 41.27 0 0 1 13.66 1.47c1.42.4 2 .7 1.87 1s-.78.17-1.84 0l-4.85-.6a46.28 46.28 0 0 0-8.64 0 59.12 59.12 0 0 0-8.26 1.47M62 3.88a1.19 1.19 0 0 0 2.37 0 1.19 1.19 0 0 0-2.37 0" fill="#ca4c37"/><path d="M7.36 42.47H6.14a3.79 3.79 0 0 1-1.48-.29 3.41 3.41 0 0 1-1.92-2 4.08 4.08 0 0 1-.27-1.5v-5.56c0-1.48-.82-2.22-2.47-2.22v-1.46c1.65 0 2.47-.74 2.47-2.23v-5.7A4 4 0 0 1 2.74 20a3.3 3.3 0 0 1 .76-1.16 3.21 3.21 0 0 1 1.16-.76 3.79 3.79 0 0 1 1.48-.28h1.22v1.5H6.14a2 2 0 0 0-2.24 2.22v5.7a3 3 0 0 1-.17.94 3.93 3.93 0 0 1-.47.91 3.12 3.12 0 0 1-.72.73 2.08 2.08 0 0 1-.91.39 2.13 2.13 0 0 1 .89.38 3.08 3.08 0 0 1 .72.72 3.58 3.58 0 0 1 .49.9 3 3 0 0 1 .17 1v5.6A2 2 0 0 0 6.14 41h1.22z" fill="#265a90"/><path d="M21.55 18.07L13.62 39.4l-1.36-.55 7.93-21.32zM38.3 35.2a5.56 5.56 0 0 1-2.14 1.93 6.73 6.73 0 0 1-3.21.72 7.34 7.34 0 0 1-2.65-.47A6 6 0 0 1 28.25 36a6.12 6.12 0 0 1-1.33-2 6.87 6.87 0 0 1-.47-2.62 7.49 7.49 0 0 1 .43-2.59 6 6 0 0 1 1.24-2.05 5.64 5.64 0 0 1 2-1.34 6.77 6.77 0 0 1 2.6-.48 6 6 0 0 1 1.16.13 4.84 4.84 0 0 1 1.12.41 4.52 4.52 0 0 1 1 .64 2.29 2.29 0 0 1 .64.9v-1.78h1.62v4.94h-1.7a3.64 3.64 0 0 0-.3-1.49 3.56 3.56 0 0 0-.81-1.16 3.69 3.69 0 0 0-1.23-.76 4.32 4.32 0 0 0-1.53-.27 4.51 4.51 0 0 0-1.94.38 3.88 3.88 0 0 0-1.38 1 4.55 4.55 0 0 0-.84 1.55 6.43 6.43 0 0 0-.28 1.95 5.62 5.62 0 0 0 .32 2 4.28 4.28 0 0 0 .94 1.53 4.47 4.47 0 0 0 1.48 1 4.68 4.68 0 0 0 2 .39 5.35 5.35 0 0 0 2.44-.55A4 4 0 0 0 37 34.31zm2.24-1a3.16 3.16 0 0 1 .58-2 3.88 3.88 0 0 1 1.52-1.2 7.93 7.93 0 0 1 2.16-.67 15.88 15.88 0 0 1 2.49-.2h1.62l.7.07.77.1v-.88A2.61 2.61 0 0 0 50 28a3 3 0 0 0-1-.91 4.19 4.19 0 0 0-1.19-.48 5.14 5.14 0 0 0-1.06-.13 8.25 8.25 0 0 0-2.54.37 9.28 9.28 0 0 0-2.17 1l-.8-1.36a10.89 10.89 0 0 1 2.49-1.12 10 10 0 0 1 3-.43 7.66 7.66 0 0 1 2 .26 5.46 5.46 0 0 1 1.75.79 3.94 3.94 0 0 1 1.24 1.41 4.27 4.27 0 0 1 .47 2.09v8.06h-1.8V35.5a6.25 6.25 0 0 1-1.08 1 6.15 6.15 0 0 1-1.26.73 7.57 7.57 0 0 1-1.32.44 5.69 5.69 0 0 1-1.26.15 6.1 6.1 0 0 1-3.7-.94 3.13 3.13 0 0 1-1.23-2.66zm5 2.1a5.88 5.88 0 0 0 2-.34 5.76 5.76 0 0 0 1.54-.84 4.22 4.22 0 0 0 1-1.07 2 2 0 0 0 .35-1v-1.2a14.61 14.61 0 0 0-1.69-.14H47.3a12.81 12.81 0 0 0-1.88.13 6.07 6.07 0 0 0-1.57.43 3.06 3.06 0 0 0-1.09.77 1.76 1.76 0 0 0-.4 1.18 1.88 1.88 0 0 0 .75 1.43 3.59 3.59 0 0 0 2.39.65zm21 1.24H64.7V36.4a5.51 5.51 0 0 1-1.7 1.07 5.07 5.07 0 0 1-1.91.37 7 7 0 0 1-2.63-.47 5.63 5.63 0 0 1-2-1.33 5.81 5.81 0 0 1-1.22-2 8.08 8.08 0 0 1 0-5.2 5.77 5.77 0 0 1 1.22-2.05 5.65 5.65 0 0 1 2-1.34 6.85 6.85 0 0 1 2.63-.48 5.47 5.47 0 0 1 1.91.35 5.27 5.27 0 0 1 1.71 1v-4.48h-2.47V20.3h4.3zM64.7 28.1a4.79 4.79 0 0 0-1.7-1.24 4.91 4.91 0 0 0-2-.38 4.39 4.39 0 0 0-1.9.38 3.88 3.88 0 0 0-1.38 1 4.55 4.55 0 0 0-.84 1.55 6.93 6.93 0 0 0 0 3.9 4.55 4.55 0 0 0 .84 1.55 4 4 0 0 0 1.38 1 4.54 4.54 0 0 0 1.9.38 4.88 4.88 0 0 0 3.65-1.65zM71 32a4.75 4.75 0 0 0 1.42 3.12 4.46 4.46 0 0 0 3.2 1.17 5.23 5.23 0 0 0 2.47-.57 4.16 4.16 0 0 0 1.63-1.42l1.27.88a6.45 6.45 0 0 1-2.21 2 6.74 6.74 0 0 1-3.16.68 7.18 7.18 0 0 1-2.62-.49A6.2 6.2 0 0 1 71 36a5.85 5.85 0 0 1-1.34-2 6.87 6.87 0 0 1-.48-2.62 7.43 7.43 0 0 1 .43-2.58 6 6 0 0 1 1.24-2 5.53 5.53 0 0 1 2-1.35 7.34 7.34 0 0 1 5.35.05 5.42 5.42 0 0 1 2 1.46 6 6 0 0 1 1.17 2.23 10.26 10.26 0 0 1 .3 2.81zm8.72-1.54a4.71 4.71 0 0 0-1.47-3 4.32 4.32 0 0 0-2.87-1 4.43 4.43 0 0 0-1.61.28 4.11 4.11 0 0 0-1.31.81 4.72 4.72 0 0 0-1.44 2.9zm16.98 7.08h-1.8V28.7a3.07 3.07 0 0 0-.37-1.63 1.19 1.19 0 0 0-1.07-.58 1.59 1.59 0 0 0-1.51 1.08 7.69 7.69 0 0 0-.48 3v6.94h-1.83v-8.8a3 3 0 0 0-.38-1.63 1.2 1.2 0 0 0-1.08-.58 1.38 1.38 0 0 0-1 .38 2.71 2.71 0 0 0-.6 1 5.13 5.13 0 0 0-.28 1.32 13.88 13.88 0 0 0-.07 1.44v6.94H84.4V25.22h1.8V27a2.54 2.54 0 0 1 4.93-.27 2.92 2.92 0 0 1 4.88-.87 4.5 4.5 0 0 1 .74 2.82zm15.04-12.32l-6.66 15.44a2.86 2.86 0 0 1-1.45 1.69 5.22 5.22 0 0 1-2.08.41 7.35 7.35 0 0 1-2.55-.47l.36-1.57a5.9 5.9 0 0 0 1.22.38 5.74 5.74 0 0 0 1 .11 1.5 1.5 0 0 0 1.24-.43 4.84 4.84 0 0 0 .58-1l.76-1.87-5.5-12.66h2.14L105.2 36l4.36-10.77z" fill="#2bb8ca"/><path d="M121.67 30.9q-2.43 0-2.43 2.22v5.63a4 4 0 0 1-.27 1.5 3.5 3.5 0 0 1-2 2 3.94 3.94 0 0 1-1.48.27h-1.23V41h1.23a2 2 0 0 0 2.21-2.22v-5.65a3 3 0 0 1 .17-1 3.87 3.87 0 0 1 .49-.92 3.07 3.07 0 0 1 .74-.7 2.34 2.34 0 0 1 .91-.37 2.55 2.55 0 0 1-.93-.4 2.94 2.94 0 0 1-.73-.72 4 4 0 0 1-.48-.91 3 3 0 0 1-.17-.94v-5.65a2 2 0 0 0-2.21-2.22h-1.23v-1.47h1.23a3.76 3.76 0 0 1 1.48.29 4 4 0 0 1 1.18.77 3.45 3.45 0 0 1 .77 1.17 3.91 3.91 0 0 1 .27 1.46v5.7c0 1.5.8 2.23 2.43 2.23z" fill="#265a90"/><path d="M18.64 30.47h5.07v1.55h-5.07z" fill="#2bb8ca"/></svg>